<svg width="280" height="280" viewBox="0 0 280 280" fill="none" xmlns="http://www.w3.org/2000/svg">
<path d="M229.008 140.062L228.854 139.45C206.292 68.7012 139.066 18.4734 136.207 16.3804L127.53 10L128.092 20.7191C128.092 21.1789 129.674 62.7293 89.3991 97.2862C45.6537 134.855 45.9085 165.84 46.011 182.48L46.0629 184.777C46.0629 230.156 79.3648 264.085 127.009 269.679C124.416 269.271 121.766 268.743 119.108 267.93C103.743 263.183 94.7595 252.412 93.0238 236.894L92.6158 233.832C91.2373 221.836 89.4509 206.982 115.688 178.805C125.488 168.29 134.013 156.958 141.057 145.166L144.579 139.246L149.224 144.35C163.108 159.509 173.726 174.823 180.872 189.728C187.456 202.898 187.865 223.725 187.354 228.166C184.853 250.829 168.468 267.725 146.518 270.175C145.088 270.338 142.946 270.497 140.324 270.555C140.555 270.557 140.774 270.583 141.006 270.583C192.867 270.583 233.448 228.88 233.448 175.64C233.448 162.879 229.16 140.981 229.008 140.062Z" fill="black"/>
</svg>
