<svg xmlns="http://www.w3.org/2000/svg" xmlns:xlink="http://www.w3.org/1999/xlink" version="1.1" width="375pt" height="375pt" viewBox="0 0 375 375">
<defs>
<clipPath id="clip_0">
<path transform="matrix(.24,0,0,.24,0,0)" d="M0 0H1562.5V1562.5H0Z" fill-rule="evenodd"/>
</clipPath>
<clipPath id="clip_1">
<path transform="matrix(.24,0,0,.24,0,0)" d="M0 0H1562.5V1562.5H0Z" fill-rule="evenodd"/>
</clipPath>
<clipPath id="clip_2">
<path transform="matrix(.24,0,0,.24,0,0)" d="M296.90217 30.851943H1265.6521V1530.8519H296.90217Z" fill-rule="evenodd"/>
</clipPath>
</defs>
<g clip-path="url(#clip_0)">
<path transform="matrix(.75,0,0,.75,0,0)" d="M0 0H500V500H0Z" fill="#ffffff"/>
</g>
<g clip-path="url(#clip_1)">
<path transform="matrix(.75,0,0,.75,0,0)" d="M0 0H500V500H0Z" fill="#ffffff"/>
</g>
<g clip-path="url(#clip_2)">
<path transform="matrix(.94248089,0,0,2.0430077,-76.110439,-48.7153)" d="M285.73 110.661C264.943 90.608 230.314 76.302 190.186 72.538 188.275 72.359 186.299 72.648 184.961 73.301 183.622 73.955 183.111 74.881 183.608 75.75L183.652 75.821 183.635 75.795C197.992 99.21 235.343 115.738 278.704 115.981 283.3 120.934 287.032 126.228 289.776 131.782 279.764 136.827 271.954 142.451 266.345 148.401 221.17 146.329 183.809 133.85 170.12 117.048 208.975 118.544 242.268 127.731 260.145 140.805 261.805 142.019 265.291 142.384 267.924 141.618 270.557 140.853 271.347 139.246 269.687 138.032 248.756 122.723 208.685 112.153 162.353 111.652 160.586 111.633 158.901 111.997 157.802 112.635 156.704 113.274 156.318 114.113 156.76 114.902L156.802 114.971 156.784 114.944 156.881 115.101 156.928 115.179 156.932 115.185C169.123 135.115 210.644 150.539 262.186 153.42 250.638 169.497 254.345 187.332 273.299 202.285 274.305 203.079 276.145 203.568 278.138 203.573 280.132 203.578 281.983 203.098 283.007 202.309 297.395 191.235 306.821 173.865 306.821 154.323 306.821 154.004 306.696 153.698 306.468 153.416L306.467 153.352 306.45 152.757C353.77 148.636 391.17 133.82 402.512 115.028 402.969 114.27 402.658 113.457 401.664 112.817 400.671 112.178 399.102 111.78 397.398 111.735 362.362 110.818 326.682 116.085 299.082 127.529 296.731 123.408 293.855 119.435 290.502 115.639 341.52 112.381 381.994 86.393 381.994 54.536 381.994 53.485 380.62 52.536 378.512 52.134 376.405 51.732 373.979 51.954 372.366 52.698 322.573 75.654 242.552 76.266 191.146 54.536 233.511 36.628 295.311 33.893 343.608 46.335 313.666 58.241 271.759 60.42 237.438 52.872 250.291 50.045 264.21 48.583 278.164 48.485 289.934 48.566 301.662 49.616 312.75 51.633 315.645 52.16 318.923 51.504 320.066 50.169 321.209 48.834 319.786 47.323 316.89 46.796 304.5 44.542 291.394 43.371 278.261 43.284 278.207 43.284 278.153 43.284 278.1 43.284 258.845 43.411 239.65 45.868 222.683 50.653 221.008 51.126 219.986 51.966 219.986 52.871 219.986 53.777 221.008 54.617 222.683 55.09 264.76 66.956 320.541 64.5 356.942 47.718 358.152 47.16 358.748 46.379 358.56 45.595 358.373 44.81 357.424 44.108 355.979 43.685 300.932 27.555 227.025 30.559 179.005 52.698 176.803 53.713 176.803 55.359 179.005 56.375 231.295 80.482 314.282 81.901 370.185 60.632 365.504 87.477 330.25 108.872 285.73 110.661ZM295.189 153.524C290.11 153.776 284.93 153.906 279.673 153.906 277.704 153.906 275.746 153.887 273.801 153.851 263.333 167.359 264.797 182.337 278.201 195.429 288.904 185.068 295.497 170.548 295.54 154.481L295.197 154.323 295.189 153.524ZM292.503 138.323C286.9 141.587 282.216 145.07 278.451 148.703L279.673 148.705C284.808 148.705 289.865 148.571 294.821 148.312 294.397 144.916 293.616 141.58 292.503 138.323ZM306.014 147.5C345.441 143.828 377.17 132.095 389.401 116.833 358.04 116.856 326.692 122.261 302.786 133.056L302.026 133.403C304.007 137.957 305.357 142.668 306.014 147.5ZM197.537 78.77C211.281 96.477 239.627 109.204 273.274 110.647 255.747 94.88 228.957 83.259 197.537 78.77Z" fill-rule="evenodd"/>
</g>
</svg>
