<svg width="280" height="280" viewBox="0 0 280 280" fill="#d7d254" xmlns="http://www.w3.org/2000/svg">
<path fill-rule="evenodd" clip-rule="evenodd" d="M144.414 132.638C130.047 102.595 106.113 81.1616 78.3785 75.5223C77.0577 75.2541 75.6919 75.6871 74.7672 76.6655C73.8417 77.6453 73.4885 79.0326 73.832 80.3346L73.8625 80.4409L73.8507 80.402C83.7736 115.482 109.589 140.245 139.558 140.609C142.734 148.029 145.314 155.961 147.21 164.282C140.291 171.84 134.893 180.266 131.016 189.181C99.7931 186.076 73.971 167.38 64.5098 142.207C91.3645 144.449 114.375 158.213 126.731 177.8C127.878 179.619 130.287 180.166 132.107 179.018C133.927 177.872 134.473 175.465 133.326 173.646C118.859 150.71 91.1641 134.874 59.1416 134.123C57.9203 134.095 56.7557 134.64 55.9962 135.596C55.2373 136.553 54.9705 137.81 55.276 138.992L55.305 139.096L55.2926 139.055L55.3596 139.29L55.3921 139.407L55.3949 139.416C63.8207 169.276 92.5181 192.384 128.141 196.7C120.16 220.787 122.722 247.507 135.822 269.91C136.518 271.1 137.789 271.832 139.167 271.84C140.545 271.847 141.824 271.128 142.532 269.946C152.476 253.355 158.991 227.331 158.991 198.053C158.991 197.575 158.905 197.117 158.747 196.694L158.746 196.598L158.735 195.707C191.44 189.533 217.289 167.335 225.128 139.181C225.444 138.045 225.229 136.827 224.542 135.869C223.856 134.911 222.771 134.315 221.594 134.247C197.378 132.874 172.718 140.765 153.642 157.91C152.017 151.736 150.03 145.784 147.712 140.096C182.973 135.215 210.947 96.28 210.947 48.5516C210.947 46.977 209.997 45.5552 208.54 44.9529C207.084 44.3507 205.407 44.6833 204.293 45.7979C169.878 80.1907 114.571 81.1076 79.042 48.5516C108.323 21.7218 151.036 17.6242 184.416 36.2648C163.722 54.1025 134.758 57.3671 111.037 46.0586C119.92 41.8232 129.54 39.6328 139.185 39.486C147.32 39.6073 155.425 41.1805 163.089 44.2023C165.09 44.9919 167.355 44.0091 168.145 42.009C168.935 40.0089 167.952 37.7451 165.95 36.9555C157.387 33.5786 148.329 31.8242 139.252 31.6938C139.214 31.6938 139.177 31.6938 139.14 31.6938C125.832 31.8841 112.566 35.5652 100.839 42.7341C99.6812 43.4427 98.9748 44.7012 98.9748 46.0571C98.9748 47.4145 99.6812 48.673 100.839 49.3816C129.92 67.1593 168.474 63.4797 193.632 38.3369C194.469 37.5009 194.881 36.3308 194.751 35.1562C194.621 33.9801 193.965 32.9283 192.967 32.2946C154.921 8.12854 103.84 12.6292 70.6507 45.7979C69.1288 47.3186 69.1288 49.7846 70.6507 51.3068C106.791 87.4241 164.148 89.55 202.785 57.6847C199.55 97.904 175.184 129.958 144.414 132.638ZM150.952 196.856C147.441 197.234 143.861 197.428 140.228 197.428C138.867 197.428 137.513 197.4 136.169 197.346C128.934 217.584 129.946 240.024 139.21 259.638C146.608 244.115 151.164 222.361 151.194 198.29L150.957 198.053L150.952 196.856ZM149.095 174.082C145.223 178.972 141.985 184.19 139.383 189.633L140.228 189.636C143.777 189.636 147.272 189.435 150.697 189.047C150.404 183.959 149.864 178.961 149.095 174.082ZM158.433 187.831C185.683 182.329 207.613 164.751 216.066 141.885C194.391 141.92 172.725 150.018 156.202 166.191L155.677 166.711C157.046 173.533 157.979 180.591 158.433 187.831ZM83.4591 84.8591C92.9583 111.388 112.55 130.456 135.805 132.617C123.691 108.995 105.175 91.5846 83.4591 84.8591Z" />
</svg>
