<svg width="310" height="480" fill="#AEA92D" xmlns="http://www.w3.org/2000/svg">
<path fill-rule="evenodd" clip-rule="evenodd" d="M162.571 226.615C136.449 171.991 92.9328 133.021 42.5063 122.768C40.1048 122.28 37.6217 123.068 35.9403 124.846C34.2577 126.628 33.6155 129.15 34.2401 131.517L34.2954 131.711L34.274 131.64C52.3156 195.423 99.2524 240.445 153.742 241.107C159.517 254.599 164.207 269.02 167.655 284.149C155.074 297.892 145.259 313.212 138.211 329.42C81.4421 323.775 34.4927 289.782 17.2905 244.014C66.1173 248.089 107.955 273.114 130.42 308.728C132.506 312.035 136.886 313.029 140.195 310.943C143.504 308.859 144.497 304.481 142.411 301.174C116.108 259.472 65.7529 230.68 7.53017 229.315C5.30969 229.263 3.19225 230.255 1.81121 231.993C0.431414 233.733 -0.0536589 236.019 0.501777 238.168L0.554565 238.356L0.531939 238.282L0.653833 238.71L0.712891 238.922L0.717934 238.939C16.0376 293.228 68.2146 335.243 132.984 343.091C118.473 386.885 123.131 435.468 146.95 476.2C148.214 478.363 150.526 479.695 153.03 479.709C155.536 479.722 157.862 478.415 159.149 476.265C177.23 446.1 189.075 398.784 189.075 345.551C189.075 344.682 188.918 343.849 188.631 343.08L188.63 342.906L188.608 341.285C248.073 330.06 295.071 289.701 309.324 238.511C309.898 236.446 309.507 234.232 308.258 232.488C307.01 230.748 305.039 229.664 302.897 229.541C258.87 227.043 214.033 241.39 179.349 272.564C176.395 261.338 172.781 250.516 168.568 240.175C232.679 231.301 283.54 160.509 283.54 73.7303C283.54 70.8673 281.813 68.2823 279.164 67.1872C276.517 66.0922 273.468 66.6969 271.441 68.7236C208.869 131.256 108.312 132.923 43.7126 73.7303C96.9503 24.9487 174.611 17.4985 235.303 51.3907C197.676 83.8227 145.014 89.7584 101.885 69.1975C118.037 61.4968 135.528 57.5143 153.063 57.2473C167.854 57.4679 182.592 60.3282 196.525 65.8225C200.163 67.258 204.283 65.4711 205.719 61.8345C207.155 58.198 205.367 54.082 201.728 52.6464C186.158 46.5065 169.688 43.3167 153.185 43.0797C153.117 43.0797 153.049 43.0797 152.983 43.0797C128.786 43.4257 104.665 50.1186 83.3433 63.153C81.2385 64.4414 79.9542 66.7296 79.9542 69.1948C79.9542 71.6628 81.2385 73.9509 83.3433 75.2394C136.219 107.562 206.316 100.872 252.059 55.158C253.579 53.638 254.328 51.5105 254.092 49.3749C253.857 47.2366 252.664 45.3243 250.849 44.1721C181.674 0.23377 88.7997 8.4167 28.4558 68.7236C25.6886 71.4884 25.6886 75.9721 28.4558 78.7397C94.1655 144.407 198.45 148.273 268.7 90.3359C262.818 163.462 218.516 221.742 162.571 226.615ZM174.457 343.375C168.075 344.061 161.566 344.415 154.959 344.415C152.485 344.415 150.024 344.363 147.58 344.265C134.426 381.061 136.266 421.862 153.11 457.524C166.559 429.301 174.844 389.748 174.898 345.981L174.467 345.551L174.457 343.375ZM171.082 301.967C164.041 310.858 158.155 320.346 153.424 330.242L154.959 330.248C161.412 330.248 167.767 329.883 173.995 329.177C173.462 319.926 172.481 310.839 171.082 301.967ZM188.061 326.965C237.606 316.963 277.478 285.002 292.848 243.428C253.439 243.491 214.045 258.214 184.004 287.62L183.049 288.565C185.538 300.97 187.235 313.803 188.061 326.965ZM51.7438 139.744C69.0151 187.978 104.636 222.646 146.918 226.577C124.893 183.628 91.2275 151.972 51.7438 139.744Z" />
</svg>
